<svg
  width="32"
  height="32"
  viewBox="0 0 32 32"
  fill="none"
  xmlns="http://www.w3.org/2000/svg"
>
  <style>
    path {
      fill: black;
    }
    @media (prefers-color-scheme: dark) {
      path {
        fill: white;
      }
    }
  </style>
  <path
    d="M17.144 6.42386C17.0884 6.38376 17.0495 6.32465 17.0345 6.25775C17.0196 6.19084 17.0297 6.12079 17.063 6.06086C17.1096 6.031 17.1637 6.01514 17.219 6.01514C17.2743 6.01514 17.3284 6.031 17.375 6.06086C18.0797 6.35341 18.7177 6.78618 19.25 7.33286C19.553 7.61386 19.807 7.94186 20 8.30286C20.204 8.67086 20.371 9.05586 20.5 9.45486C20.623 9.86786 20.687 10.2969 20.688 10.7269C20.625 11.1519 20.563 13.2119 19.375 14.1819C19.2238 14.2728 19.0443 14.3045 18.8711 14.2709C18.6979 14.2373 18.5432 14.1407 18.437 13.9999C18.3521 13.9003 18.3005 13.7767 18.2894 13.6463C18.2782 13.5159 18.3082 13.3854 18.375 13.2729C18.8801 12.4909 19.1591 11.5846 19.1811 10.654C19.2032 9.72339 18.9675 8.80482 18.5 7.99986C18.1 7.43386 17.646 6.90686 17.144 6.42386ZM15.3 25.0059C15.425 25.1269 15.425 25.2479 15.363 25.3089C15.301 25.3699 15.175 25.4299 15.113 25.3689C14.4083 25.0763 13.7703 24.6435 13.238 24.0969C12.9359 23.8174 12.6825 23.4896 12.488 23.1269C12.2844 22.7603 12.1169 22.3748 11.988 21.9759C11.8644 21.5628 11.8011 21.134 11.8 20.7029C11.863 20.2789 11.925 18.2179 13.113 17.2479C13.2641 17.1572 13.4434 17.1257 13.6164 17.1593C13.7894 17.1929 13.9438 17.2892 14.05 17.4299C14.141 17.5292 14.1915 17.6591 14.1915 17.7939C14.1915 17.9286 14.141 18.0585 14.05 18.1579C13.5451 18.9397 13.2662 19.8458 13.2442 20.7762C13.2221 21.7066 13.4577 22.625 13.925 23.4299C14.33 23.9969 14.791 24.5249 15.3 25.0059Z"
  />
  <path
    d="M20.694 20.0058C20.6035 18.8423 20.1434 17.7383 19.381 16.8548C18.6092 16.0791 17.7241 15.4249 16.756 14.9148C15.9116 14.448 15.1159 13.898 14.381 13.2728C13.7766 12.7047 13.3621 11.9641 13.194 11.1518C13.0447 10.3131 13.1514 9.449 13.5 8.67179C13.9177 7.80712 14.5166 7.04248 15.256 6.42979C15.2976 6.3927 15.3261 6.34323 15.3375 6.28868C15.3488 6.23413 15.3424 6.17738 15.319 6.12679C15.3012 6.0949 15.2763 6.06746 15.2464 6.04654C15.2164 6.02561 15.1821 6.01174 15.146 6.00597C15.1099 6.0002 15.073 6.00267 15.038 6.0132C15.003 6.02374 14.9709 6.04206 14.944 6.06679C13.948 6.50128 13.1006 7.21727 12.506 8.12679C11.841 9.0823 11.5295 10.2396 11.625 11.3998C11.6749 11.986 11.8229 12.5597 12.063 13.0968C12.3228 13.6284 12.6597 14.1188 13.063 14.5518C13.8577 15.3111 14.7638 15.9444 15.75 16.4298C16.598 16.8698 17.395 17.3988 18.125 18.0058C18.7672 18.5693 19.1882 19.3426 19.313 20.1878C19.489 21.0668 19.379 21.9778 19 22.7938C18.5746 23.6529 17.9536 24.4002 17.187 24.9758C17.1616 24.9904 17.1397 25.0101 17.1225 25.0338C17.1054 25.0575 17.0934 25.0845 17.0874 25.1131C17.0815 25.1418 17.0817 25.1713 17.088 25.1999C17.0943 25.2284 17.1066 25.2553 17.124 25.2788C17.159 25.3428 17.224 25.3888 17.297 25.3998C17.37 25.4108 17.446 25.3898 17.5 25.3398C18.4292 24.8033 19.2377 24.0809 19.875 23.2178C20.495 22.2598 20.781 21.1338 20.694 20.0058Z"
  />
</svg>
