<svg width="95" height="112" viewBox="0 0 95 112" fill="none" xmlns="http://www.w3.org/2000/svg">
<path fill-rule="evenodd" clip-rule="evenodd" d="M67.5424 6.51278C64.9369 11.7851 63.8662 18.0745 63.0897 23.3785C59.489 22.2057 55.7286 20.9938 51.9999 20.25C51.6036 20.1615 51.2122 20.0776 50.8255 19.9982L55.234 25.7138C57.5731 26.365 59.9251 27.0964 62.2468 27.9306C61.9626 29.7849 61.6666 31.6781 61.2966 33.5736L64.9685 38.3342C65.7608 35.197 66.2685 32.0301 66.6897 29.1531C70.2904 30.3259 74.0508 31.5378 77.9395 32.3201C80.3859 32.8663 82.6482 33.2394 84.7457 33.4344C84.9553 35.2364 85.1145 37.0432 85.2232 38.8549C85.3683 41.2655 85.5563 43.6722 85.7872 46.0749C85.8242 46.4606 85.9109 46.8205 86.0473 47.1546C86.5343 48.3497 87.1143 49.4999 87.7874 50.6054C89.3361 53.1494 91.2779 55.5779 93.6127 57.8911C94.248 58.5212 94.7105 59.265 95 60.1226V62.6423C94.7206 63.162 94.3122 63.5861 93.7749 63.9146C92.4268 64.7405 90.9979 65.3902 89.4881 65.8635C89.154 65.9687 88.9611 66.1572 88.9095 66.4289C88.8647 66.6666 88.9037 67.026 89.0264 67.5071C89.2037 68.1986 89.3839 68.8896 89.567 69.5802C89.7258 70.1782 89.7808 70.6408 89.7321 70.9681C89.6133 71.7599 89.1408 72.3336 88.3148 72.6891C87.9593 72.841 87.6393 72.9706 87.3549 73.0777C87.3248 73.0892 87.2976 73.1073 87.2754 73.1307C87.2532 73.1542 87.2365 73.1823 87.2267 73.213C87.2169 73.2438 87.2141 73.2764 87.2186 73.3083C87.2231 73.3403 87.2347 73.3708 87.2526 73.3977C87.5205 73.8009 87.7684 74.207 87.9963 74.6161C88.2496 75.0709 88.3938 75.3563 88.4288 75.4722C88.5379 75.8375 88.4692 76.1725 88.2228 76.4773C88.179 76.5319 88.0275 76.6429 87.7684 76.8104C87.6165 76.9078 87.4762 77.0418 87.3476 77.2122C86.8567 77.8638 86.4744 78.5168 86.2007 79.1713C86.0809 79.4577 86.0122 79.6311 85.9947 79.6914C85.9362 79.895 85.9367 80.0854 85.9961 80.2627C86.2591 81.0399 86.5134 81.82 86.7588 82.6031C87.0676 83.5878 87.2488 84.384 87.3023 84.9918C87.4182 86.3134 87.2609 87.6001 86.8304 88.8516C86.5518 89.6619 86.19 90.2887 85.7448 90.7318C85.2052 91.2704 84.5433 91.6308 83.7592 91.813C82.9118 92.0097 81.8686 92.2254 80.6296 92.4602C79.6507 92.6462 78.6873 92.783 77.7396 92.8707C76.3701 92.9963 74.9991 93.0947 73.6266 93.1658C73.0081 93.1979 72.5313 93.2349 72.1963 93.2768C71.6712 93.3421 71.2003 93.4234 70.7834 93.5208C68.4739 94.0584 66.2906 94.9949 64.2334 96.3302C63.7678 96.6331 63.3265 96.9686 62.9096 97.3368C62.4616 97.7332 62.1333 98.1715 61.9249 98.6517C61.6122 99.3734 61.4257 100.174 61.3653 101.053C61.2903 102.137 61.2869 103.221 61.3551 104.306C61.4281 105.485 61.4934 106.337 61.5508 106.861C61.7281 108.488 61.7681 110.119 61.6707 111.753C61.6657 111.838 61.6603 111.92 61.6545 112H2.63717C3.26901 110.864 3.96793 109.606 4.73395 108.227C6.97524 104.191 9.14251 100.115 11.2357 96C12.3199 93.869 13.2024 91.6576 13.8832 89.3659C14.4988 87.2903 14.9888 85.3945 15.3531 83.6784C15.543 82.7852 15.7276 81.8288 15.9068 80.8091C16.4143 77.9093 16.7025 74.9913 16.7712 72.0549C20.3301 66.3943 21.6123 58.9906 22.5053 52.8903C26.106 54.0631 29.8665 55.275 33.5952 56.0188C34.4232 56.2036 35.2301 56.3687 36.0168 56.5137L31.8463 51.1069C29.0597 50.3651 26.2423 49.5151 23.4684 48.5184C23.8079 46.3033 24.1642 44.0325 24.6436 41.7687L20.9705 37.0067C20.0976 40.1831 19.4639 43.6018 18.9054 47.1157C15.3047 45.9429 11.5442 44.731 7.65557 43.9487C5.42206 43.4116 3.34088 43.0292 1.39499 42.8026C1.02825 40.2428 0.83065 37.8059 0.802192 35.4918C0.789529 34.514 0.814854 33.541 0.878168 32.5728C1.12655 28.7578 1.8493 25.029 3.04641 21.3863C3.80714 19.0702 4.85327 17.0186 6.1848 15.2314C6.96988 14.1775 7.99069 13.0555 9.24722 11.8653C11.8733 9.37683 14.7121 7.2604 17.7638 5.51603C20.2038 4.12228 22.7968 3.01683 25.5426 2.19967C26.353 1.95812 27.2925 1.701 28.361 1.42829C30.9296 0.773779 33.5327 0.313092 36.1705 0.0462253C36.335 0.0295712 36.5004 0.0143255 36.6667 0.000488281L42.8733 0.000488391C44.1247 0.0723045 45.3556 0.182025 46.566 0.32965C53.8892 1.22291 60.8813 3.28395 67.5424 6.51278ZM39.9496 27.3603L37.1292 26.6181L39.2006 24.5653L42.021 25.3075L39.9496 27.3603ZM36.4218 45.5932L34.3441 47.6521L35.0931 50.4472L37.1708 48.3883L36.4218 45.5932ZM32.8767 44.1366L35.6971 44.8788L33.6257 46.9315L30.8053 46.1894L32.8767 44.1366ZM43.4948 28.8117L42.7457 26.0166L40.668 28.0755L41.417 30.8706L43.4948 28.8117ZM42.7106 37.6624L39.8902 36.9202L41.9616 34.8674L44.782 35.6096L42.7106 37.6624ZM33.7529 35.6319L33.0038 32.8367L30.9261 34.8956L31.6752 37.6908L33.7529 35.6319ZM30.6932 37.9545L27.8643 37.2102L27.1152 34.4151L29.9442 35.1594L30.6932 37.9545ZM27.386 33.4329L30.2064 34.1751L32.2778 32.1223L29.4574 31.3801L27.386 33.4329ZM45.5067 36.324L46.2557 39.1191L44.178 41.178L43.429 38.3829L45.5067 36.324ZM33.3621 47.9159L30.5332 47.1715L31.2823 49.9667L34.1112 50.711L33.3621 47.9159ZM52.1236 41.3843L54.9525 42.1286L55.7016 44.9237L52.8727 44.1794L52.1236 41.3843ZM55.3419 29.8446L54.5929 27.0495L52.5152 29.1084L53.2642 31.9035L55.3419 29.8446ZM52.2823 32.1673L49.4534 31.423L48.7043 28.6278L51.5332 29.3721L52.2823 32.1673ZM58.0108 39.8059L55.9331 41.8648L56.6822 44.66L58.7599 42.6011L58.0108 39.8059ZM54.4671 38.3547L57.2875 39.0968L55.2161 41.1496L52.3957 40.4075L54.4671 38.3547ZM47.5443 45.9116L44.7239 45.1695L42.6525 47.2223L45.4729 47.9644L47.5443 45.9116ZM42.3804 48.2044L45.2093 48.9487L45.9584 51.7439L43.1295 50.9995L42.3804 48.2044ZM37.6075 30.3901L40.4364 31.1344L39.6874 28.3393L36.8584 27.595L37.6075 30.3901ZM43.1974 41.4365L40.3685 40.6922L39.6194 37.897L42.4484 38.6413L43.1974 41.4365ZM48.9764 27.651L51.7968 28.3932L53.8682 26.3404L51.0478 25.5982L48.9764 27.651ZM46.1899 48.685L48.2676 46.626L49.0167 49.4212L46.939 51.4801L46.1899 48.685ZM41.285 32.3381L40.7193 32.1894L41.2639 34.2216L41.6795 33.81L42.2452 33.9587L41.7006 31.9265L41.285 32.3381ZM34.3649 33.9903L34.0709 32.8934L36.5281 30.2882L36.8309 31.4182L34.3649 33.9903ZM47.8101 29.2137L48.1041 30.3106L44.6821 29.316L44.3793 28.186L47.8101 29.2137ZM38.1472 48.1033L38.4411 49.2002L41.8719 50.2279L41.5691 49.0979L38.1472 48.1033ZM52.1803 45.5205L51.8864 44.4236L49.4203 46.9957L49.7231 48.1257L52.1803 45.5205ZM43.4803 42.4915L44.046 42.6401L44.4616 42.2285L45.0062 44.2607L44.4405 44.112L44.0249 44.5237L43.4803 42.4915ZM53.1322 33.3709L52.5665 33.2223L53.7685 37.7076L54.1841 37.296L54.7498 37.4447L53.5478 32.9593L53.1322 33.3709ZM31.9574 38.7466L31.5418 39.1582L30.9761 39.0095L32.1781 43.4949L32.5937 43.0833L33.1594 43.232L31.9574 38.7466Z" fill="url(#paint0_linear_1442_4)"/>
<path d="M71.8141 8.96321C73.5002 10.1368 75.0355 11.4908 76.4202 13.0253C79.4865 16.4245 81.6786 20.3198 82.9965 24.7115C83.4368 26.1788 83.8042 27.6618 84.099 29.1604C83.6471 29.1158 83.1835 29.0671 82.7065 29.0151L70.8676 11.1315C71.1621 10.3812 71.4767 9.6618 71.8141 8.96321Z" fill="url(#paint1_linear_1442_4)"/>
<path d="M12.9058 65.2879C13.3999 65.7566 13.862 66.1919 14.292 66.5939C14.5004 66.1309 14.6997 65.6576 14.8906 65.1713L3.05175 47.2877C2.78555 47.2587 2.52353 47.2307 2.26539 47.2039C2.66273 48.7277 3.15246 50.1946 3.73457 51.6046C4.06575 52.4072 4.488 53.2847 5.00133 54.2373C6.3913 56.8144 7.94978 59.2873 9.67677 61.656C10.57 62.8812 11.6463 64.0919 12.9058 65.2879Z" fill="url(#paint2_linear_1442_4)"/>
<path d="M69.5537 14.9596C68.7315 18.2898 68.0691 21.6593 67.6102 24.9244L68.0782 25.0753C71.6695 26.2332 75.1112 27.3429 78.3371 28.1189L69.5537 14.9596Z" fill="url(#paint3_linear_1442_4)"/>
<path d="M18.1475 51.3801C17.6887 54.6452 17.0263 58.0147 16.204 61.3448L7.42069 48.1855L8.3184 48.4427C11.3953 49.3236 14.7229 50.2764 18.1475 51.3801Z" fill="url(#paint4_linear_1442_4)"/>
<defs>
<linearGradient id="paint0_linear_1442_4" x1="47.8995" y1="0.000488281" x2="47.8995" y2="112" gradientUnits="userSpaceOnUse">
<stop stop-color="#2FD2C1"/>
<stop offset="0.515625" stop-color="#3A8FE2"/>
<stop offset="1" stop-color="#5A5FE1"/>
</linearGradient>
<linearGradient id="paint1_linear_1442_4" x1="47.8995" y1="0.000488281" x2="47.8995" y2="112" gradientUnits="userSpaceOnUse">
<stop stop-color="#2FD2C1"/>
<stop offset="0.515625" stop-color="#3A8FE2"/>
<stop offset="1" stop-color="#5A5FE1"/>
</linearGradient>
<linearGradient id="paint2_linear_1442_4" x1="47.8995" y1="0.000488281" x2="47.8995" y2="112" gradientUnits="userSpaceOnUse">
<stop stop-color="#2FD2C1"/>
<stop offset="0.515625" stop-color="#3A8FE2"/>
<stop offset="1" stop-color="#5A5FE1"/>
</linearGradient>
<linearGradient id="paint3_linear_1442_4" x1="47.8995" y1="0.000488281" x2="47.8995" y2="112" gradientUnits="userSpaceOnUse">
<stop stop-color="#2FD2C1"/>
<stop offset="0.515625" stop-color="#3A8FE2"/>
<stop offset="1" stop-color="#5A5FE1"/>
</linearGradient>
<linearGradient id="paint4_linear_1442_4" x1="47.8995" y1="0.000488281" x2="47.8995" y2="112" gradientUnits="userSpaceOnUse">
<stop stop-color="#2FD2C1"/>
<stop offset="0.515625" stop-color="#3A8FE2"/>
<stop offset="1" stop-color="#5A5FE1"/>
</linearGradient>
</defs>
</svg>
