<svg viewBox="0 0 95 112" fill="none" xmlns="http://www.w3.org/2000/svg">
  <path
    fill-rule="evenodd"
    clip-rule="evenodd"
    d="M66.7434 6.5123C64.1378 11.7846 63.0672 18.074 62.2907 23.378C58.69 22.2052 54.9296 20.9933 51.2009 20.2495C50.8046 20.1611 50.4132 20.0771 50.0265 19.9977L54.435 25.7133C56.7741 26.3645 59.1261 27.0959 61.4478 27.9301C61.1636 29.7844 60.8676 31.6777 60.4975 33.5731L64.1695 38.3337C64.9618 35.1965 65.4695 32.0296 65.8907 29.1526C69.4913 30.3254 73.2518 31.5373 77.1405 32.3196C79.5869 32.8658 81.8491 33.2389 83.9467 33.4339C84.1563 35.2359 84.3155 37.0428 84.4242 38.8544C84.5693 41.265 84.7573 43.6717 84.9882 46.0745C85.0252 46.4602 85.1119 46.82 85.2482 47.1541C85.7353 48.3492 86.3153 49.4994 86.9884 50.6049C88.5371 53.1489 90.4789 55.5775 92.8137 57.8906C93.449 58.5207 93.9114 59.2645 94.201 60.1221V62.6418C93.9215 63.1615 93.5132 63.5856 92.9759 63.9141C91.6278 64.7401 90.1989 65.3897 88.6891 65.863C88.355 65.9682 88.1621 66.1567 88.1105 66.4284C88.0657 66.6661 88.1046 67.0255 88.2274 67.5066C88.4046 68.1981 88.5848 68.8892 88.768 69.5797C88.9267 70.1777 88.9818 70.6404 88.9331 70.9676C88.8142 71.7594 88.3418 72.3331 87.5158 72.6886C87.1603 72.8405 86.8403 72.9701 86.5559 73.0772C86.5257 73.0887 86.4985 73.1068 86.4763 73.1303C86.4541 73.1537 86.4375 73.1818 86.4277 73.2126C86.4179 73.2433 86.4151 73.2759 86.4196 73.3078C86.4241 73.3398 86.4357 73.3703 86.4536 73.3972C86.7215 73.8004 86.9694 74.2065 87.1973 74.6156C87.4506 75.0704 87.5947 75.3558 87.6298 75.4717C87.7389 75.837 87.6702 76.172 87.4238 76.4769C87.3799 76.5314 87.2285 76.6424 86.9694 76.81C86.8174 76.9073 86.6772 77.0413 86.5486 77.2117C86.0577 77.8633 85.6754 78.5163 85.4016 79.1708C85.2818 79.4572 85.2132 79.6306 85.1956 79.691C85.1372 79.8945 85.1377 80.0849 85.1971 80.2622C85.4601 81.0394 85.7143 81.8196 85.9598 82.6026C86.2686 83.5873 86.4497 84.3835 86.5033 84.9913C86.6192 86.313 86.4619 87.5996 86.0314 88.8511C85.7528 89.6615 85.3909 90.2882 84.9458 90.7314C84.4062 91.27 83.7443 91.6303 82.9602 91.8125C82.1128 92.0092 81.0696 92.2249 79.8306 92.4597C78.8516 92.6457 77.8883 92.7825 76.9406 92.8702C75.571 92.9958 74.2001 93.0942 72.8276 93.1653C72.2091 93.1974 71.7323 93.2345 71.3972 93.2763C70.8722 93.3416 70.4013 93.4229 69.9844 93.5203C67.6749 94.0579 65.4916 94.9944 63.4344 96.3297C62.9688 96.6326 62.5275 96.9682 62.1106 97.3363C61.6626 97.7327 61.3343 98.171 61.1259 98.6512C60.8132 99.3729 60.6266 100.173 60.5663 101.053C60.4913 102.136 60.4878 103.22 60.556 104.305C60.6291 105.485 60.6944 106.336 60.7518 106.86C60.9291 108.488 60.969 110.119 60.8716 111.753C60.8667 111.838 60.8613 111.92 60.8555 112H1.83814C2.46998 110.864 3.16891 109.606 3.93492 108.226C6.17622 104.19 8.34348 100.115 10.4367 95.9995C11.5208 93.8685 12.4033 91.6571 13.0842 89.3654C13.6998 87.2898 14.1897 85.394 14.554 83.6779C14.744 82.7848 14.9286 81.8283 15.1078 80.8086C15.6153 77.9088 15.9035 74.9908 15.9722 72.0545C19.5311 66.3938 20.8132 58.9901 21.7063 52.8898C25.307 54.0626 29.0674 55.2745 32.7961 56.0183C33.6242 56.2032 34.4311 56.3682 35.2178 56.5133L31.0473 51.1064C28.2606 50.3646 25.4433 49.5146 22.6694 48.5179C23.0088 46.3028 23.3652 44.032 23.8446 41.7683L20.1715 37.0063C19.2986 40.1826 18.6649 43.6013 18.1063 47.1152C14.5057 45.9424 10.7452 44.7305 6.85654 43.9482C4.62303 43.4111 2.54185 43.0287 0.595961 42.8021C0.229222 40.2423 0.0316234 37.8054 0.0031658 35.4913C-0.00949709 34.5135 0.0158277 33.5405 0.0791412 32.5724C0.327525 28.7573 1.05027 25.0285 2.24738 21.3859C3.00811 19.0698 4.05424 17.0181 5.38577 15.2309C6.17086 14.177 7.19166 13.055 8.44819 11.8648C11.0742 9.37634 13.9131 7.25991 16.9648 5.51554C19.4048 4.12179 21.9977 3.01634 24.7436 2.19918C25.554 1.95763 26.4935 1.70051 27.562 1.4278C30.1306 0.773291 32.7337 0.312604 35.3715 0.0457371C35.536 0.0290829 35.7014 0.0138372 35.8677 0L42.0743 1.09725e-07C43.3257 0.0718162 44.5566 0.181537 45.767 0.329162C53.0901 1.22242 60.0822 3.28347 66.7434 6.5123ZM39.1506 27.3598L36.3302 26.6176L38.4016 24.5649L41.222 25.307L39.1506 27.3598ZM35.6228 45.5927L33.5451 47.6516L34.2941 50.4467L36.3718 48.3878L35.6228 45.5927ZM32.0777 44.1361L34.8981 44.8783L32.8267 46.9311L30.0063 46.1889L32.0777 44.1361ZM42.6957 28.8112L41.9467 26.0161L39.869 28.075L40.618 30.8701L42.6957 28.8112ZM41.9116 37.6619L39.0912 36.9197L41.1626 34.8669L43.983 35.6091L41.9116 37.6619ZM32.9539 35.6314L32.2048 32.8362L30.1271 34.8951L30.8761 37.6903L32.9539 35.6314ZM29.8942 37.954L27.0653 37.2097L26.3162 34.4146L29.1451 35.1589L29.8942 37.954ZM26.587 33.4324L29.4074 34.1746L31.4788 32.1218L28.6584 31.3797L26.587 33.4324ZM44.7076 36.3235L45.4567 39.1186L43.379 41.1775L42.6299 38.3824L44.7076 36.3235ZM32.5631 47.9154L29.7342 47.1711L30.4832 49.9662L33.3122 50.7105L32.5631 47.9154ZM51.3246 41.3838L54.1535 42.1281L54.9026 44.9232L52.0736 44.1789L51.3246 41.3838ZM54.5429 29.8441L53.7939 27.049L51.7161 29.1079L52.4652 31.903L54.5429 29.8441ZM51.4833 32.1668L48.6543 31.4225L47.9053 28.6273L50.7342 29.3716L51.4833 32.1668ZM57.2118 39.8054L55.1341 41.8643L55.8832 44.6595L57.9609 42.6006L57.2118 39.8054ZM53.6681 38.3542L56.4885 39.0964L54.4171 41.1491L51.5967 40.407L53.6681 38.3542ZM46.7453 45.9112L43.9249 45.169L41.8535 47.2218L44.6739 47.9639L46.7453 45.9112ZM41.5814 48.2039L44.4103 48.9482L45.1594 51.7434L42.3304 50.9991L41.5814 48.2039ZM36.8085 30.3896L39.6374 31.1339L38.8884 28.3388L36.0594 27.5945L36.8085 30.3896ZM42.3984 41.436L39.5695 40.6917L38.8204 37.8965L41.6493 38.6408L42.3984 41.436ZM48.1774 27.6505L50.9978 28.3927L53.0692 26.3399L50.2488 25.5977L48.1774 27.6505ZM45.3909 48.6845L47.4686 46.6256L48.2177 49.4207L46.14 51.4796L45.3909 48.6845ZM40.486 32.3376L39.9203 32.1889L40.4649 34.2211L40.8805 33.8095L41.4462 33.9582L40.9016 31.926L40.486 32.3376ZM33.5658 33.9898L33.2719 32.8929L35.7291 30.2877L36.0319 31.4177L33.5658 33.9898ZM47.0111 29.2132L47.3051 30.3101L43.8831 29.3155L43.5803 28.1855L47.0111 29.2132ZM37.3481 48.1028L37.6421 49.1997L41.0729 50.2274L40.7701 49.0975L37.3481 48.1028ZM51.3813 45.52L51.0873 44.4231L48.6213 46.9953L48.9241 48.1252L51.3813 45.52ZM42.6812 42.491L43.247 42.6396L43.6626 42.228L44.2072 44.2602L43.6414 44.1116L43.2258 44.5232L42.6812 42.491ZM52.3332 33.3705L51.7674 33.2218L52.9695 37.7072L53.385 37.2956L53.9508 37.4442L52.7488 32.9589L52.3332 33.3705ZM31.1584 38.7461L30.7428 39.1577L30.1771 39.009L31.3791 43.4944L31.7946 43.0828L32.3604 43.2315L31.1584 38.7461Z"
    fill="white"
  />
  <path
    d="M71.0151 8.96272C72.7011 10.1363 74.2365 11.4903 75.6212 13.0248C78.6875 16.424 80.8796 20.3194 82.1975 24.711C82.6377 26.1783 83.0052 27.6613 83.2999 29.1599C82.848 29.1153 82.3845 29.0666 81.9075 29.0146L70.0686 11.131C70.3631 10.3807 70.6777 9.66131 71.0151 8.96272Z"
    fill="white"
  />
  <path
    d="M12.1067 65.2874C12.6009 65.7561 13.063 66.1914 13.4929 66.5935C13.7014 66.1304 13.9007 65.6571 14.0916 65.1709L2.25272 47.2872C1.98652 47.2582 1.7245 47.2302 1.46636 47.2034C1.8637 48.7272 2.35343 50.1941 2.93555 51.6042C3.26672 52.4067 3.68898 53.2843 4.2023 54.2368C5.59227 56.8139 7.15076 59.2868 8.87775 61.6555C9.77095 62.8808 10.8473 64.0914 12.1067 65.2874Z"
    fill="white"
  />
  <path
    d="M68.7547 14.9592C67.9324 18.2893 67.27 21.6588 66.8112 24.9239L67.2792 25.0748C70.8705 26.2327 74.3122 27.3424 77.538 28.1185L68.7547 14.9592Z"
    fill="white"
  />
  <path
    d="M17.3485 51.3796C16.8896 54.6447 16.2272 58.0142 15.405 61.3444L6.62166 48.1851L7.51937 48.4422C10.5963 49.3232 13.9238 50.2759 17.3485 51.3796Z"
    fill="white"
  />
</svg>
