<svg viewBox="0 0 20 20" fill="none" xmlns="http://www.w3.org/2000/svg">
  <path
    d="M18.4471 4.07284C19.143 3.37697 19.143 2.24874 18.4471 1.55288C17.7513 0.857006 16.623 0.857006 15.9272 1.55288L11.0607 6.41938C10.4749 7.00516 9.52513 7.00516 8.93934 6.41938L4.07284 1.55288C3.37697 0.857007 2.24874 0.857006 1.55288 1.55288C0.857007 2.24874 0.857006 3.37697 1.55288 4.07284L6.41938 8.93934C7.00516 9.52513 7.00516 10.4749 6.41938 11.0607L1.55288 15.9272C0.857006 16.623 0.857006 17.7513 1.55288 18.4471C2.24874 19.143 3.37697 19.143 4.07284 18.4471L8.93934 13.5806C9.52513 12.9948 10.4749 12.9948 11.0607 13.5806L15.9272 18.4471C16.623 19.143 17.7513 19.143 18.4471 18.4471C19.143 17.7513 19.143 16.623 18.4471 15.9272L13.5806 11.0607C12.9948 10.4749 12.9948 9.52513 13.5806 8.93934L18.4471 4.07284Z"
    fill="#F1F1F1"
    stroke="#F1F1F1"
  />
</svg>
