<svg viewBox="0 0 644 337" fill="none" xmlns="http://www.w3.org/2000/svg">
  <path
    d="M0 336.585V144.628H58.7843V157.692C73.299 146.564 90.4746 141 110.311 141C125.31 141 138.494 144.265 149.864 150.797C161.475 157.329 170.547 166.4 177.079 178.012C183.61 189.624 186.876 203.05 186.876 218.29V336.585H128.092V226.273C128.092 215.629 124.947 207.162 118.657 200.873C112.368 194.583 103.901 191.438 93.2566 191.438C85.7574 191.438 79.1048 192.769 73.299 195.43C67.735 198.091 62.8968 201.84 58.7843 206.678V336.585H0Z"
    fill="white"
  />
  <path
    d="M343.504 336.585V144.628H402.288V156.966C415.835 146.322 431.801 141 450.186 141C462.282 141 473.168 143.298 482.844 147.894C492.521 152.49 500.625 159.022 507.156 167.489C514.898 159.022 524.09 152.49 534.734 147.894C545.378 143.298 556.99 141 569.569 141C584.084 141 596.905 144.265 608.033 150.797C619.161 157.329 627.87 166.4 634.16 178.012C640.691 189.624 643.957 203.05 643.957 218.29V336.585H585.173V226.273C585.173 215.629 582.27 207.162 576.464 200.873C570.9 194.583 563.401 191.438 553.966 191.438C547.435 191.438 541.508 192.648 536.186 195.067C530.864 197.486 526.267 201.114 522.397 205.953C522.639 207.888 522.76 209.944 522.76 212.121C523.002 214.057 523.123 216.113 523.123 218.29V336.585H464.338V226.273C464.338 215.629 461.435 207.162 455.629 200.873C450.066 194.583 442.566 191.438 433.132 191.438C426.6 191.438 420.673 192.648 415.351 195.067C410.271 197.244 405.917 200.631 402.288 205.227V336.585H343.504Z"
    fill="white"
  />
  <path d="M233.408 144.991H294.37V336.585H233.408V144.991Z" fill="white" />
  <path
    fill-rule="evenodd"
    clip-rule="evenodd"
    d="M298.542 6.5123C295.937 11.7846 294.866 18.074 294.09 23.378C290.489 22.2052 286.729 20.9933 283 20.2495C282.604 20.1611 282.212 20.0771 281.826 19.9977L286.234 25.7133C288.573 26.3645 290.925 27.0959 293.247 27.9301C292.963 29.7844 292.667 31.6777 292.297 33.5731L295.969 38.3337C296.761 35.1965 297.269 32.0296 297.69 29.1526C301.29 30.3254 305.051 31.5373 308.94 32.3196C311.386 32.8658 313.648 33.2389 315.746 33.4339C315.955 35.2359 316.114 37.0428 316.223 38.8544C316.368 41.265 316.556 43.6717 316.787 46.0745C316.824 46.4602 316.911 46.82 317.047 47.1541C317.534 48.3492 318.114 49.4994 318.787 50.6049C320.336 53.1489 322.278 55.5775 324.613 57.8906C325.248 58.5207 325.71 59.2645 326 60.1221V62.6418C325.721 63.1615 325.312 63.5856 324.775 63.9141C323.427 64.7401 321.998 65.3897 320.488 65.863C320.154 65.9682 319.961 66.1567 319.91 66.4284C319.865 66.6661 319.904 67.0255 320.026 67.5066C320.204 68.1981 320.384 68.8892 320.567 69.5797C320.726 70.1777 320.781 70.6404 320.732 70.9676C320.613 71.7594 320.141 72.3331 319.315 72.6886C318.959 72.8405 318.639 72.9701 318.355 73.0772C318.325 73.0887 318.298 73.1068 318.275 73.1303C318.253 73.1537 318.237 73.1818 318.227 73.2126C318.217 73.2433 318.214 73.2759 318.219 73.3078C318.223 73.3398 318.235 73.3703 318.253 73.3972C318.521 73.8004 318.768 74.2065 318.996 74.6156C319.25 75.0704 319.394 75.3558 319.429 75.4717C319.538 75.837 319.469 76.172 319.223 76.4769C319.179 76.5314 319.028 76.6424 318.768 76.81C318.616 76.9073 318.476 77.0413 318.348 77.2117C317.857 77.8633 317.474 78.5163 317.201 79.1708C317.081 79.4572 317.012 79.6306 316.995 79.691C316.936 79.8945 316.937 80.0849 316.996 80.2622C317.259 81.0394 317.513 81.8196 317.759 82.6026C318.068 83.5873 318.249 84.3835 318.302 84.9913C318.418 86.313 318.261 87.5996 317.83 88.8511C317.552 89.6615 317.19 90.2882 316.745 90.7314C316.205 91.27 315.543 91.6303 314.759 91.8125C313.912 92.0092 312.869 92.2249 311.63 92.4597C310.651 92.6457 309.687 92.7825 308.74 92.8702C307.37 92.9958 305.999 93.0942 304.627 93.1653C304.008 93.1974 303.531 93.2345 303.196 93.2763C302.671 93.3416 302.2 93.4229 301.783 93.5203C299.474 94.0579 297.291 94.9944 295.233 96.3297C294.768 96.6326 294.327 96.9682 293.91 97.3363C293.462 97.7327 293.133 98.171 292.925 98.6512C292.612 99.3729 292.426 100.173 292.365 101.053C292.29 102.136 292.287 103.22 292.355 104.305C292.428 105.485 292.493 106.336 292.551 106.86C292.728 108.488 292.768 110.119 292.671 111.753C292.666 111.838 292.66 111.92 292.655 112H233.637C234.269 110.864 234.968 109.606 235.734 108.226C237.975 104.19 240.143 100.115 242.236 95.9995C243.32 93.8685 244.202 91.6571 244.883 89.3654C245.499 87.2898 245.989 85.394 246.353 83.6779C246.543 82.7848 246.728 81.8283 246.907 80.8086C247.414 77.9088 247.702 74.9908 247.771 72.0545C251.33 66.3938 252.612 58.9901 253.505 52.8898C257.106 54.0626 260.866 55.2745 264.595 56.0183C265.423 56.2032 266.23 56.3682 267.017 56.5133L262.846 51.1064C260.06 50.3646 257.242 49.5146 254.468 48.5179C254.808 46.3028 255.164 44.032 255.644 41.7683L251.971 37.0063C251.098 40.1826 250.464 43.6013 249.905 47.1152C246.305 45.9424 242.544 44.7305 238.656 43.9482C236.422 43.4111 234.341 43.0287 232.395 42.8021C232.028 40.2423 231.831 37.8054 231.802 35.4913C231.79 34.5135 231.815 33.5405 231.878 32.5724C232.127 28.7573 232.849 25.0285 234.046 21.3859C234.807 19.0698 235.853 17.0181 237.185 15.2309C237.97 14.177 238.991 13.055 240.247 11.8648C242.873 9.37634 245.712 7.25991 248.764 5.51554C251.204 4.12179 253.797 3.01634 256.543 2.19918C257.353 1.95763 258.292 1.70051 259.361 1.4278C261.93 0.773291 264.533 0.312604 267.17 0.0457371C267.335 0.0290829 267.5 0.0138372 267.667 0L273.873 1.09725e-07C275.125 0.0718162 276.356 0.181537 277.566 0.329162C284.889 1.22242 291.881 3.28347 298.542 6.5123ZM270.95 27.3598L268.129 26.6176L270.201 24.5649L273.021 25.307L270.95 27.3598ZM267.422 45.5927L265.344 47.6516L266.093 50.4467L268.171 48.3878L267.422 45.5927ZM263.877 44.1361L266.697 44.8783L264.626 46.9311L261.805 46.1889L263.877 44.1361ZM274.495 28.8112L273.746 26.0161L271.668 28.075L272.417 30.8701L274.495 28.8112ZM273.711 37.6619L270.89 36.9197L272.962 34.8669L275.782 35.6091L273.711 37.6619ZM264.753 35.6314L264.004 32.8362L261.926 34.8951L262.675 37.6903L264.753 35.6314ZM261.693 37.954L258.864 37.2097L258.115 34.4146L260.944 35.1589L261.693 37.954ZM258.386 33.4324L261.206 34.1746L263.278 32.1218L260.457 31.3797L258.386 33.4324ZM276.507 36.3235L277.256 39.1186L275.178 41.1775L274.429 38.3824L276.507 36.3235ZM264.362 47.9154L261.533 47.1711L262.282 49.9662L265.111 50.7105L264.362 47.9154ZM283.124 41.3838L285.953 42.1281L286.702 44.9232L283.873 44.1789L283.124 41.3838ZM286.342 29.8441L285.593 27.049L283.515 29.1079L284.264 31.903L286.342 29.8441ZM283.282 32.1668L280.453 31.4225L279.704 28.6273L282.533 29.3716L283.282 32.1668ZM289.011 39.8054L286.933 41.8643L287.682 44.6595L289.76 42.6006L289.011 39.8054ZM285.467 38.3542L288.288 39.0964L286.216 41.1491L283.396 40.407L285.467 38.3542ZM278.544 45.9112L275.724 45.169L273.652 47.2218L276.473 47.9639L278.544 45.9112ZM273.38 48.2039L276.209 48.9482L276.958 51.7434L274.129 50.9991L273.38 48.2039ZM268.608 30.3896L271.436 31.1339L270.687 28.3388L267.858 27.5945L268.608 30.3896ZM274.197 41.436L271.368 40.6917L270.619 37.8965L273.448 38.6408L274.197 41.436ZM279.976 27.6505L282.797 28.3927L284.868 26.3399L282.048 25.5977L279.976 27.6505ZM277.19 48.6845L279.268 46.6256L280.017 49.4207L277.939 51.4796L277.19 48.6845ZM272.285 32.3376L271.719 32.1889L272.264 34.2211L272.679 33.8095L273.245 33.9582L272.701 31.926L272.285 32.3376ZM265.365 33.9898L265.071 32.8929L267.528 30.2877L267.831 31.4177L265.365 33.9898ZM278.81 29.2132L279.104 30.3101L275.682 29.3155L275.379 28.1855L278.81 29.2132ZM269.147 48.1028L269.441 49.1997L272.872 50.2274L272.569 49.0975L269.147 48.1028ZM283.18 45.52L282.886 44.4231L280.42 46.9953L280.723 48.1252L283.18 45.52ZM274.48 42.491L275.046 42.6396L275.462 42.228L276.006 44.2602L275.44 44.1116L275.025 44.5232L274.48 42.491ZM284.132 33.3705L283.566 33.2218L284.768 37.7072L285.184 37.2956L285.75 37.4442L284.548 32.9589L284.132 33.3705ZM262.957 38.7461L262.542 39.1577L261.976 39.009L263.178 43.4944L263.594 43.0828L264.159 43.2315L262.957 38.7461Z"
    fill="white"
  />
  <path
    d="M302.814 8.96272C304.5 10.1363 306.036 11.4903 307.42 13.0248C310.487 16.424 312.679 20.3194 313.997 24.711C314.437 26.1783 314.804 27.6613 315.099 29.1599C314.647 29.1153 314.183 29.0666 313.706 29.0146L301.868 11.131C302.162 10.3807 302.477 9.66131 302.814 8.96272Z"
    fill="white"
  />
  <path
    d="M243.906 65.2874C244.4 65.7561 244.862 66.1914 245.292 66.5935C245.5 66.1304 245.7 65.6571 245.891 65.1709L234.052 47.2872C233.786 47.2582 233.524 47.2302 233.265 47.2034C233.663 48.7272 234.152 50.1941 234.735 51.6042C235.066 52.4067 235.488 53.2843 236.001 54.2368C237.391 56.8139 238.95 59.2868 240.677 61.6555C241.57 62.8808 242.646 64.0914 243.906 65.2874Z"
    fill="white"
  />
  <path
    d="M300.554 14.9592C299.731 18.2893 299.069 21.6588 298.61 24.9239L299.078 25.0748C302.67 26.2327 306.111 27.3424 309.337 28.1185L300.554 14.9592Z"
    fill="white"
  />
  <path
    d="M249.148 51.3796C248.689 54.6447 248.026 58.0142 247.204 61.3444L238.421 48.1851L239.318 48.4422C242.395 49.3232 245.723 50.2759 249.148 51.3796Z"
    fill="white"
  />
</svg>
